<?xml version="1.0" encoding="UTF-8" standalone="no"?><!DOCTYPE svg PUBLIC "-//W3C//DTD SVG 1.1//EN" "http://www.w3.org/Graphics/SVG/1.1/DTD/svg11.dtd"><!-- Generated by graphviz version 2.40.1 (20161225.0304)
 --><!-- Title: JJMMAAAA Pages: 1 --><svg xmlns="http://www.w3.org/2000/svg" xmlns:xlink="http://www.w3.org/1999/xlink" width="636pt" height="953pt" viewBox="0.00 0.00 636.00 952.91">
<g id="graph0" class="graph" transform="scale(1 1) rotate(0) translate(4 948.9138)">
<title>JJMMAAAA</title>
<polygon fill="#ffffff" stroke="transparent" points="-4,4 -4,-948.9138 632,-948.9138 632,4 -4,4"/>
<!-- J0 -->
<g id="node1" class="node">
<title>J0</title>
<ellipse fill="none" stroke="#000000" cx="171" cy="-925.2932" rx="19.7419" ry="19.7419"/>
<text text-anchor="middle" x="171" y="-921.0932" font-family="Times,serif" font-size="14.00" fill="#000000">J0</text>
</g>
<!-- J1 -->
<g id="node2" class="node">
<title>J1</title>
<text text-anchor="middle" x="64" y="-830.6727" font-family="Times,serif" font-size="14.00" fill="#000000">J1</text>
</g>
<!-- J0&#45;&gt;J1 -->
<g id="edge1" class="edge">
<title>J0-&gt;J1</title>
<path fill="none" stroke="#000000" d="M155.6695,-912.3382C139.447,-898.6293 113.4546,-876.6643 93.2833,-859.6186"/>
<polygon fill="#000000" stroke="#000000" points="95.4918,-856.9025 85.5947,-853.1213 90.9736,-862.2492 95.4918,-856.9025"/>
<text text-anchor="middle" x="127.5" y="-875.0727" font-family="Times,serif" font-size="14.00" fill="#000000">0</text>
</g>
<!-- J2 -->
<g id="node3" class="node">
<title>J2</title>
<text text-anchor="middle" x="171" y="-830.6727" font-family="Times,serif" font-size="14.00" fill="#000000">J2</text>
</g>
<!-- J0&#45;&gt;J2 -->
<g id="edge2" class="edge">
<title>J0-&gt;J2</title>
<path fill="none" stroke="#000000" d="M171,-905.226C171,-892.9098 171,-876.9435 171,-863.335"/>
<polygon fill="#000000" stroke="#000000" points="174.5001,-863.0414 171,-853.0415 167.5001,-863.0415 174.5001,-863.0414"/>
<text text-anchor="middle" x="181.5" y="-875.0727" font-family="Times,serif" font-size="14.00" fill="#000000">1, 2</text>
</g>
<!-- J3 -->
<g id="node4" class="node">
<title>J3</title>
<text text-anchor="middle" x="327" y="-830.6727" font-family="Times,serif" font-size="14.00" fill="#000000">J3</text>
</g>
<!-- J0&#45;&gt;J3 -->
<g id="edge3" class="edge">
<title>J0-&gt;J3</title>
<path fill="none" stroke="#000000" d="M187.9917,-915.4445C212.6058,-901.1777 258.769,-874.4206 291.1217,-855.6684"/>
<polygon fill="#000000" stroke="#000000" points="292.9547,-858.6515 299.8512,-850.6086 289.4443,-852.5952 292.9547,-858.6515"/>
<text text-anchor="middle" x="265.5" y="-875.0727" font-family="Times,serif" font-size="14.00" fill="#000000">3</text>
</g>
<!-- J4 -->
<g id="node5" class="node">
<title>J4</title>
<text text-anchor="middle" x="91" y="-741.8727" font-family="Times,serif" font-size="14.00" fill="#000000">J4</text>
</g>
<!-- J1&#45;&gt;J4 -->
<g id="edge4" class="edge">
<title>J1-&gt;J4</title>
<path fill="none" stroke="#000000" d="M40.8565,-816.5998C31.0639,-806.5678 23.2963,-793.813 30,-782.0727 35.6021,-772.2615 45.04,-764.8558 54.8388,-759.3926"/>
<polygon fill="#000000" stroke="#000000" points="56.4497,-762.5004 63.8396,-754.9082 53.3281,-756.2349 56.4497,-762.5004"/>
<text text-anchor="middle" x="89.5" y="-786.2727" font-family="Times,serif" font-size="14.00" fill="#000000">1, 2, 3, 4, 5, 6, 7, 8, 9</text>
</g>
<!-- J2&#45;&gt;J4 -->
<g id="edge5" class="edge">
<title>J2-&gt;J4</title>
<path fill="none" stroke="#000000" d="M166.4948,-816.7364C163.0788,-805.7816 157.4951,-792.0557 149,-782.0727 142.852,-774.8478 134.878,-768.6213 126.8211,-763.4753"/>
<polygon fill="#000000" stroke="#000000" points="128.5148,-760.4106 118.1284,-758.3193 124.9437,-766.4312 128.5148,-760.4106"/>
<text text-anchor="middle" x="226.5" y="-786.2727" font-family="Times,serif" font-size="14.00" fill="#000000">0, 1, 2, 3, 4, 5, 6, 7, 8, 9</text>
</g>
<!-- J5 -->
<g id="node6" class="node">
<title>J5</title>
<text text-anchor="middle" x="316" y="-741.8727" font-family="Times,serif" font-size="14.00" fill="#000000">J5</text>
</g>
<!-- J3&#45;&gt;J5 -->
<g id="edge6" class="edge">
<title>J3-&gt;J5</title>
<path fill="none" stroke="#000000" d="M324.7208,-816.4732C323.2064,-804.2477 321.1889,-787.9613 319.4759,-774.1326"/>
<polygon fill="#000000" stroke="#000000" points="322.9415,-773.6385 318.2387,-764.1447 315.9946,-774.4991 322.9415,-773.6385"/>
<text text-anchor="middle" x="325.5" y="-786.2727" font-family="Times,serif" font-size="14.00" fill="#000000">0</text>
</g>
<!-- J6 -->
<g id="node7" class="node">
<title>J6</title>
<text text-anchor="middle" x="388" y="-741.8727" font-family="Times,serif" font-size="14.00" fill="#000000">J6</text>
</g>
<!-- J3&#45;&gt;J6 -->
<g id="edge7" class="edge">
<title>J3-&gt;J6</title>
<path fill="none" stroke="#000000" d="M339.6392,-816.4732C348.3668,-803.7682 360.1069,-786.6777 369.8341,-772.5174"/>
<polygon fill="#000000" stroke="#000000" points="372.8084,-774.369 375.5857,-764.1447 367.0386,-770.4055 372.8084,-774.369"/>
<text text-anchor="middle" x="365.5" y="-786.2727" font-family="Times,serif" font-size="14.00" fill="#000000">1</text>
</g>
<!-- M0 -->
<g id="node8" class="node">
<title>M0</title>
<text text-anchor="middle" x="91" y="-653.0727" font-family="Times,serif" font-size="14.00" fill="#000000">M0</text>
</g>
<!-- J4&#45;&gt;M0 -->
<g id="edge8" class="edge">
<title>J4-&gt;M0</title>
<path fill="none" stroke="#000000" d="M91,-727.6732C91,-715.5675 91,-699.4803 91,-685.74"/>
<polygon fill="#000000" stroke="#000000" points="94.5001,-685.3446 91,-675.3447 87.5001,-685.3447 94.5001,-685.3446"/>
<text text-anchor="middle" x="92.9453" y="-697.4727" font-family="Times,serif" font-size="14.00" fill="#000000">/</text>
</g>
<!-- M1 -->
<g id="node9" class="node">
<title>M1</title>
<text text-anchor="middle" x="316" y="-653.0727" font-family="Times,serif" font-size="14.00" fill="#000000">M1</text>
</g>
<!-- J5&#45;&gt;M1 -->
<g id="edge9" class="edge">
<title>J5-&gt;M1</title>
<path fill="none" stroke="#000000" d="M316,-727.6732C316,-715.5675 316,-699.4803 316,-685.74"/>
<polygon fill="#000000" stroke="#000000" points="319.5001,-685.3446 316,-675.3447 312.5001,-685.3447 319.5001,-685.3446"/>
<text text-anchor="middle" x="317.9453" y="-697.4727" font-family="Times,serif" font-size="14.00" fill="#000000">/</text>
</g>
<!-- M2 -->
<g id="node12" class="node">
<title>M2</title>
<text text-anchor="middle" x="388" y="-653.0727" font-family="Times,serif" font-size="14.00" fill="#000000">M2</text>
</g>
<!-- J6&#45;&gt;M2 -->
<g id="edge11" class="edge">
<title>J6-&gt;M2</title>
<path fill="none" stroke="#000000" d="M388,-727.6732C388,-715.5675 388,-699.4803 388,-685.74"/>
<polygon fill="#000000" stroke="#000000" points="391.5001,-685.3446 388,-675.3447 384.5001,-685.3447 391.5001,-685.3446"/>
<text text-anchor="middle" x="389.9453" y="-697.4727" font-family="Times,serif" font-size="14.00" fill="#000000">/</text>
</g>
<!-- M3 -->
<g id="node13" class="node">
<title>M3</title>
<text text-anchor="middle" x="27" y="-564.2727" font-family="Times,serif" font-size="14.00" fill="#000000">M3</text>
</g>
<!-- M0&#45;&gt;M3 -->
<g id="edge12" class="edge">
<title>M0-&gt;M3</title>
<path fill="none" stroke="#000000" d="M77.7392,-638.8732C68.5824,-626.1682 56.2649,-609.0777 46.0593,-594.9174"/>
<polygon fill="#000000" stroke="#000000" points="48.7112,-592.6108 40.0249,-586.5447 43.0324,-596.7037 48.7112,-592.6108"/>
<text text-anchor="middle" x="68.5" y="-608.6727" font-family="Times,serif" font-size="14.00" fill="#000000">0</text>
</g>
<!-- M4 -->
<g id="node14" class="node">
<title>M4</title>
<text text-anchor="middle" x="127" y="-564.2727" font-family="Times,serif" font-size="14.00" fill="#000000">M4</text>
</g>
<!-- M0&#45;&gt;M4 -->
<g id="edge13" class="edge">
<title>M0-&gt;M4</title>
<path fill="none" stroke="#000000" d="M98.4592,-638.8732C103.4641,-626.5278 110.1477,-610.0416 115.789,-596.1266"/>
<polygon fill="#000000" stroke="#000000" points="119.16,-597.1271 119.6735,-586.5447 112.6728,-594.4971 119.16,-597.1271"/>
<text text-anchor="middle" x="116.5" y="-608.6727" font-family="Times,serif" font-size="14.00" fill="#000000">1</text>
</g>
<!-- M5 -->
<g id="node15" class="node">
<title>M5</title>
<text text-anchor="middle" x="213" y="-564.2727" font-family="Times,serif" font-size="14.00" fill="#000000">M5</text>
</g>
<!-- M1&#45;&gt;M5 -->
<g id="edge14" class="edge">
<title>M1-&gt;M5</title>
<path fill="none" stroke="#000000" d="M294.6583,-638.8732C279.3656,-625.6888 258.5949,-607.7816 241.8291,-593.3273"/>
<polygon fill="#000000" stroke="#000000" points="243.8212,-590.4235 233.9619,-586.5447 239.2504,-595.7253 243.8212,-590.4235"/>
<text text-anchor="middle" x="276.5" y="-608.6727" font-family="Times,serif" font-size="14.00" fill="#000000">0</text>
</g>
<!-- M6 -->
<g id="node16" class="node">
<title>M6</title>
<text text-anchor="middle" x="316" y="-564.2727" font-family="Times,serif" font-size="14.00" fill="#000000">M6</text>
</g>
<!-- M1&#45;&gt;M6 -->
<g id="edge15" class="edge">
<title>M1-&gt;M6</title>
<path fill="none" stroke="#000000" d="M316,-638.8732C316,-626.7675 316,-610.6803 316,-596.94"/>
<polygon fill="#000000" stroke="#000000" points="319.5001,-596.5446 316,-586.5447 312.5001,-596.5447 319.5001,-596.5446"/>
<text text-anchor="middle" x="319.5" y="-608.6727" font-family="Times,serif" font-size="14.00" fill="#000000">1</text>
</g>
<!-- M10 -->
<g id="node10" class="node">
<title>M10</title>
<text text-anchor="middle" x="327" y="-475.4727" font-family="Times,serif" font-size="14.00" fill="#000000">M10</text>
</g>
<!-- A0 -->
<g id="node11" class="node">
<title>A0</title>
<text text-anchor="middle" x="233" y="-386.6727" font-family="Times,serif" font-size="14.00" fill="#000000">A0</text>
</g>
<!-- M10&#45;&gt;A0 -->
<g id="edge10" class="edge">
<title>M10-&gt;A0</title>
<path fill="none" stroke="#000000" d="M307.5231,-461.2732C293.6935,-448.2087 274.9551,-430.5068 259.7283,-416.1223"/>
<polygon fill="#000000" stroke="#000000" points="261.8031,-413.2676 252.1303,-408.9447 256.9961,-418.3561 261.8031,-413.2676"/>
<text text-anchor="middle" x="289.9453" y="-431.0727" font-family="Times,serif" font-size="14.00" fill="#000000">/</text>
</g>
<!-- A4 -->
<g id="node20" class="node">
<title>A4</title>
<text text-anchor="middle" x="160" y="-297.8727" font-family="Times,serif" font-size="14.00" fill="#000000">A4</text>
</g>
<!-- A0&#45;&gt;A4 -->
<g id="edge25" class="edge">
<title>A0-&gt;A4</title>
<path fill="none" stroke="#000000" d="M205.9342,-383.1071C191.7084,-377.5833 175.3319,-368.6472 166,-354.8727 161.1441,-347.705 159.042,-338.6971 158.3273,-330.1614"/>
<polygon fill="#000000" stroke="#000000" points="161.8254,-330.0393 158.0518,-320.1393 154.8281,-330.2317 161.8254,-330.0393"/>
<text text-anchor="middle" x="225.5" y="-342.2727" font-family="Times,serif" font-size="14.00" fill="#000000">1, 2, 3, 4, 5, 6, 7, 8, 9</text>
</g>
<!-- A1 -->
<g id="node21" class="node">
<title>A1</title>
<text text-anchor="middle" x="309" y="-297.8727" font-family="Times,serif" font-size="14.00" fill="#000000">A1</text>
</g>
<!-- A0&#45;&gt;A1 -->
<g id="edge26" class="edge">
<title>A0-&gt;A1</title>
<path fill="none" stroke="#000000" d="M260.0897,-376.0975C268.8641,-370.342 278.1014,-363.1308 285,-354.8727 291.0974,-347.5737 295.9625,-338.4731 299.6747,-329.8939"/>
<polygon fill="#000000" stroke="#000000" points="302.946,-331.1391 303.3801,-320.5531 296.4393,-328.5578 302.946,-331.1391"/>
<text text-anchor="middle" x="298.5" y="-342.2727" font-family="Times,serif" font-size="14.00" fill="#000000">0</text>
</g>
<!-- M7 -->
<g id="node17" class="node">
<title>M7</title>
<text text-anchor="middle" x="388" y="-564.2727" font-family="Times,serif" font-size="14.00" fill="#000000">M7</text>
</g>
<!-- M2&#45;&gt;M7 -->
<g id="edge16" class="edge">
<title>M2-&gt;M7</title>
<path fill="none" stroke="#000000" d="M388,-638.8732C388,-626.7675 388,-610.6803 388,-596.94"/>
<polygon fill="#000000" stroke="#000000" points="391.5001,-596.5446 388,-586.5447 384.5001,-596.5447 391.5001,-596.5446"/>
<text text-anchor="middle" x="391.5" y="-608.6727" font-family="Times,serif" font-size="14.00" fill="#000000">0</text>
</g>
<!-- M8 -->
<g id="node18" class="node">
<title>M8</title>
<text text-anchor="middle" x="467" y="-564.2727" font-family="Times,serif" font-size="14.00" fill="#000000">M8</text>
</g>
<!-- M2&#45;&gt;M8 -->
<g id="edge17" class="edge">
<title>M2-&gt;M8</title>
<path fill="none" stroke="#000000" d="M404.3689,-638.8732C415.885,-625.9285 431.4513,-608.4312 444.1839,-594.1191"/>
<polygon fill="#000000" stroke="#000000" points="446.8906,-596.3424 450.9224,-586.5447 441.6606,-591.6896 446.8906,-596.3424"/>
<text text-anchor="middle" x="437.5" y="-608.6727" font-family="Times,serif" font-size="14.00" fill="#000000">1</text>
</g>
<!-- M9 -->
<g id="node19" class="node">
<title>M9</title>
<text text-anchor="middle" x="141" y="-475.4727" font-family="Times,serif" font-size="14.00" fill="#000000">M9</text>
</g>
<!-- M3&#45;&gt;M9 -->
<g id="edge18" class="edge">
<title>M3-&gt;M9</title>
<path fill="none" stroke="#000000" d="M13.4743,-550.4254C7.0545,-539.5042 2.2939,-525.7822 10,-515.6727 21.3383,-500.7982 68.9046,-490.537 103.4604,-484.8818"/>
<polygon fill="#000000" stroke="#000000" points="104.3752,-488.2812 113.7124,-483.2746 103.291,-481.3657 104.3752,-488.2812"/>
<text text-anchor="middle" x="69.5" y="-519.8727" font-family="Times,serif" font-size="14.00" fill="#000000">1, 2, 3, 4, 5, 6, 7, 8, 9</text>
</g>
<!-- M4&#45;&gt;M9 -->
<g id="edge19" class="edge">
<title>M4-&gt;M9</title>
<path fill="none" stroke="#000000" d="M129.9008,-550.0732C131.8283,-537.8477 134.3959,-521.5613 136.5761,-507.7326"/>
<polygon fill="#000000" stroke="#000000" points="140.0507,-508.1678 138.1508,-497.7447 133.1361,-507.0776 140.0507,-508.1678"/>
<text text-anchor="middle" x="153.5" y="-519.8727" font-family="Times,serif" font-size="14.00" fill="#000000">0, 1, 2</text>
</g>
<!-- M5&#45;&gt;M10 -->
<g id="edge20" class="edge">
<title>M5-&gt;M10</title>
<path fill="none" stroke="#000000" d="M206.9918,-550.1715C204.5742,-539.1547 203.818,-525.4215 211,-515.6727 220.5231,-502.746 259.7644,-492.4595 289.9975,-486.2463"/>
<polygon fill="#000000" stroke="#000000" points="290.7185,-489.6716 299.8492,-484.2975 289.36,-482.8047 290.7185,-489.6716"/>
<text text-anchor="middle" x="263.5" y="-519.8727" font-family="Times,serif" font-size="14.00" fill="#000000">1, 3, 4, 5, 6, 7, 8, 9</text>
</g>
<!-- M6&#45;&gt;M10 -->
<g id="edge21" class="edge">
<title>M6-&gt;M10</title>
<path fill="none" stroke="#000000" d="M318.2792,-550.0732C319.7936,-537.8477 321.8111,-521.5613 323.5241,-507.7326"/>
<polygon fill="#000000" stroke="#000000" points="327.0054,-508.0991 324.7613,-497.7447 320.0585,-507.2385 327.0054,-508.0991"/>
<text text-anchor="middle" x="339.5" y="-519.8727" font-family="Times,serif" font-size="14.00" fill="#000000">0, 1, 2</text>
</g>
<!-- M7&#45;&gt;M10 -->
<g id="edge22" class="edge">
<title>M7-&gt;M10</title>
<path fill="none" stroke="#000000" d="M380.2007,-550.1468C375.3509,-539.6382 368.6009,-526.4382 361,-515.6727 358.5456,-512.1964 355.7692,-508.7185 352.887,-505.3695"/>
<polygon fill="#000000" stroke="#000000" points="355.3811,-502.9095 346.0719,-497.8509 350.1947,-507.6107 355.3811,-502.9095"/>
<text text-anchor="middle" x="402.5" y="-519.8727" font-family="Times,serif" font-size="14.00" fill="#000000">1, 3, 5, 7, 8</text>
</g>
<!-- M8&#45;&gt;M10 -->
<g id="edge23" class="edge">
<title>M8-&gt;M10</title>
<path fill="none" stroke="#000000" d="M460.9797,-550.2672C456.349,-538.8626 448.8793,-524.6715 438,-515.6727 417.0584,-498.3508 387.5844,-489.2975 364.2706,-484.6034"/>
<polygon fill="#000000" stroke="#000000" points="364.8394,-481.1495 354.3729,-482.7933 363.5801,-488.0353 364.8394,-481.1495"/>
<text text-anchor="middle" x="461.5" y="-519.8727" font-family="Times,serif" font-size="14.00" fill="#000000">0, 2</text>
</g>
<!-- M9&#45;&gt;A0 -->
<g id="edge24" class="edge">
<title>M9-&gt;A0</title>
<path fill="none" stroke="#000000" d="M160.0625,-461.2732C173.5978,-448.2087 191.9376,-430.5068 206.8404,-416.1223"/>
<polygon fill="#000000" stroke="#000000" points="209.5123,-418.4078 214.2767,-408.9447 204.6509,-413.3712 209.5123,-418.4078"/>
<text text-anchor="middle" x="197.9453" y="-431.0727" font-family="Times,serif" font-size="14.00" fill="#000000">/</text>
</g>
<!-- A5 -->
<g id="node23" class="node">
<title>A5</title>
<text text-anchor="middle" x="224" y="-209.0727" font-family="Times,serif" font-size="14.00" fill="#000000">A5</text>
</g>
<!-- A4&#45;&gt;A5 -->
<g id="edge32" class="edge">
<title>A4-&gt;A5</title>
<path fill="none" stroke="#000000" d="M152.5302,-283.7316C149.3976,-272.9662 147.7528,-259.5105 154,-249.2727 161.4309,-237.0951 174.4412,-228.8628 187.245,-223.3832"/>
<polygon fill="#000000" stroke="#000000" points="188.7983,-226.537 196.9,-219.7097 186.309,-219.9945 188.7983,-226.537"/>
<text text-anchor="middle" x="220.5" y="-253.4727" font-family="Times,serif" font-size="14.00" fill="#000000">0, 1, 2, 3, 4, 5, 6, 7, 8, 9</text>
</g>
<!-- A2 -->
<g id="node22" class="node">
<title>A2</title>
<text text-anchor="middle" x="451" y="-209.0727" font-family="Times,serif" font-size="14.00" fill="#000000">A2</text>
</g>
<!-- A1&#45;&gt;A2 -->
<g id="edge27" class="edge">
<title>A1-&gt;A2</title>
<path fill="none" stroke="#000000" d="M336.2385,-298.7872C360.4494,-294.6703 395.6772,-285.6116 420,-266.0727 428.3033,-259.4025 434.8556,-249.8654 439.7558,-240.7274"/>
<polygon fill="#000000" stroke="#000000" points="443.0256,-242.0076 444.2682,-231.4859 436.7354,-238.9362 443.0256,-242.0076"/>
<text text-anchor="middle" x="437.5" y="-253.4727" font-family="Times,serif" font-size="14.00" fill="#000000">0</text>
</g>
<!-- A1&#45;&gt;A5 -->
<g id="edge28" class="edge">
<title>A1-&gt;A5</title>
<path fill="none" stroke="#000000" d="M304.6215,-283.8266C301.2532,-272.8305 295.6751,-259.0997 287,-249.2727 279.6713,-240.9709 269.9473,-234.1256 260.337,-228.7155"/>
<polygon fill="#000000" stroke="#000000" points="261.7245,-225.4917 251.2399,-223.9675 258.4857,-231.6973 261.7245,-225.4917"/>
<text text-anchor="middle" x="356.5" y="-253.4727" font-family="Times,serif" font-size="14.00" fill="#000000">1, 2, 3, 4, 5, 6, 7, 8, 9</text>
</g>
<!-- A3 -->
<g id="node24" class="node">
<title>A3</title>
<text text-anchor="middle" x="522" y="-120.2727" font-family="Times,serif" font-size="14.00" fill="#000000">A3</text>
</g>
<!-- A2&#45;&gt;A3 -->
<g id="edge29" class="edge">
<title>A2-&gt;A3</title>
<path fill="none" stroke="#000000" d="M478.1761,-197.281C485.984,-191.7061 493.9999,-184.909 500,-177.2727 505.7327,-169.9766 510.2115,-160.9726 513.5879,-152.4794"/>
<polygon fill="#000000" stroke="#000000" points="516.951,-153.471 517.0543,-142.8767 510.3668,-151.0942 516.951,-153.471"/>
<text text-anchor="middle" x="512.5" y="-164.6727" font-family="Times,serif" font-size="14.00" fill="#000000">0</text>
</g>
<!-- A6 -->
<g id="node25" class="node">
<title>A6</title>
<text text-anchor="middle" x="366" y="-120.2727" font-family="Times,serif" font-size="14.00" fill="#000000">A6</text>
</g>
<!-- A2&#45;&gt;A6 -->
<g id="edge30" class="edge">
<title>A2-&gt;A6</title>
<path fill="none" stroke="#000000" d="M423.8901,-206.5884C407.9001,-201.2574 388.5879,-192.1511 377,-177.2727 371.6007,-170.3402 368.6817,-161.3951 367.1502,-152.8445"/>
<polygon fill="#000000" stroke="#000000" points="370.605,-152.2633 365.8967,-142.7721 363.6585,-153.1278 370.605,-152.2633"/>
<text text-anchor="middle" x="436.5" y="-164.6727" font-family="Times,serif" font-size="14.00" fill="#000000">1, 2, 3, 4, 5, 6, 7, 8, 9</text>
</g>
<!-- A5&#45;&gt;A6 -->
<g id="edge33" class="edge">
<title>A5-&gt;A6</title>
<path fill="none" stroke="#000000" d="M222.0783,-195.0388C221.9173,-183.768 223.7211,-169.7357 232,-160.4727 244.8205,-146.1281 293.811,-135.6687 328.8433,-129.8308"/>
<polygon fill="#000000" stroke="#000000" points="329.4431,-133.2794 338.7615,-128.2378 328.3329,-126.368 329.4431,-133.2794"/>
<text text-anchor="middle" x="298.5" y="-164.6727" font-family="Times,serif" font-size="14.00" fill="#000000">0, 1, 2, 3, 4, 5, 6, 7, 8, 9</text>
</g>
<!-- A7 -->
<g id="node26" class="node">
<title>A7</title>
<ellipse fill="none" stroke="#000000" cx="444" cy="-26.8363" rx="22.6979" ry="22.6979"/>
<ellipse fill="none" stroke="#000000" cx="444" cy="-26.8363" rx="26.6736" ry="26.6736"/>
<text text-anchor="middle" x="444" y="-22.6363" font-family="Times,serif" font-size="14.00" fill="#000000">A7</text>
</g>
<!-- A3&#45;&gt;A7 -->
<g id="edge31" class="edge">
<title>A3-&gt;A7</title>
<path fill="none" stroke="#000000" d="M516.9,-106.1873C513.3155,-95.4416 507.7636,-81.9871 500,-71.6727 493.1187,-62.5305 483.9638,-54.1754 475.0536,-47.22"/>
<polygon fill="#000000" stroke="#000000" points="477.1257,-44.3992 467.0118,-41.2434 472.9502,-50.0176 477.1257,-44.3992"/>
<text text-anchor="middle" x="568.5" y="-75.8727" font-family="Times,serif" font-size="14.00" fill="#000000">1, 2, 3, 4, 5, 6, 7, 8, 9</text>
</g>
<!-- A6&#45;&gt;A7 -->
<g id="edge34" class="edge">
<title>A6-&gt;A7</title>
<path fill="none" stroke="#000000" d="M360.1304,-106.1641C357.8074,-95.4102 356.939,-81.9552 363,-71.6727 372.8248,-55.0047 391.3193,-44.0984 408.158,-37.2206"/>
<polygon fill="#000000" stroke="#000000" points="409.6565,-40.3973 417.803,-33.6235 407.2104,-33.8386 409.6565,-40.3973"/>
<text text-anchor="middle" x="429.5" y="-75.8727" font-family="Times,serif" font-size="14.00" fill="#000000">0, 1, 2, 3, 4, 5, 6, 7, 8, 9</text>
</g>
</g>
</svg>